999
FreeCAD v1.1 20260414 (Git shallow)
  0
SECTION
  2
HEADER
  9
$ACADVER
  1
AC1014
  9
$ACADMAINTVER
 70
     9
  9
$DWGCODEPAGE
  3
ANSI_1252
  9
$TEXTSTYLE
  7
STANDARD
  9
$DIMSTYLE
  2
STANDARD
  9
$DIMTXSTY
  7
STANDARD
  9
$CMLSTYLE
  2
STANDARD
  9
$LUNITS
 70
2
  9
$INSUNITS
 70
4
  9
$PEXTMAX
 10
50
 20
50
 30
50
  9
$PEXTMIN
 10
0
 20
0
 30
0
  9
$HANDSEED
  5
FFFF
  0
ENDSEC
  0
SECTION
  2
CLASSES
  0
CLASS
  1
ACDBDICTIONARYWDFLT
  2
AcDbDictionaryWithDefault
  3
ObjectDBX Classes
 90
        0
280
     0
281
     0
  0
CLASS
  1
XRECORD
  2
AcDbXrecord
  3
ObjectDBX Classes
 90
        0
280
     0
281
     0
  0
CLASS
  1
LWPOLYLINE
  2
AcDbPolyline
  3
ObjectDBX Classes
 90
        0
280
     0
281
     1
  0
ENDSEC
  0
SECTION
  2
TABLES
  0
TABLE
  2
VPORT
  5
20
330
0
100
AcDbSymbolTable
 70
     1
  0
VPORT
  5
21
330
20
100
AcDbSymbolTableRecord
100
AcDbViewportTableRecord
  2
*ACTIVE
 70
     0
  0
ENDTAB
  0
TABLE
  2
LTYPE
  5
22
330
0
100
AcDbSymbolTable
 70
     1
  0
LTYPE
  5
23
330
21
100
AcDbSymbolTableRecord
100
AcDbLinetypeTableRecord
  2
BYBLOCK
 70
     0
  3

 72
    65
 73
     0
 40
0.0
  0
LTYPE
  5
24
330
21
100
AcDbSymbolTableRecord
100
AcDbLinetypeTableRecord
  2
BYLAYER
 70
     0
  3

 72
    65
 73
     0
 40
0.0
  0
LTYPE
  5
25
330
21
100
AcDbSymbolTableRecord
100
AcDbLinetypeTableRecord
  2
CONTINUOUS
 70
     0
  3
Solid line
 72
    65
 73
     0
 40
0.0
  0
ENDTAB
  0
TABLE
  2
LAYER
  5
B1D
330
0
100
AcDbSymbolTable
 70
5
  0
LAYER
  5
B1E
330
B1D
100
AcDbSymbolTableRecord
100
AcDbLayerTableRecord
  2
0
 70
   0
 62
   7
  6
CONTINUOUS
  0
LAYER
  5
B1F
330
B1D
100
AcDbSymbolTableRecord
100
AcDbLayerTableRecord
  2
none
 70
    0
 62
    7
  6
CONTINUOUS
  0
LAYER
  5
B20
330
B1D
100
AcDbSymbolTableRecord
100
AcDbLayerTableRecord
  2
Body_Unfold006_Sketch
 70
    0
 62
    7
  6
CONTINUOUS
  0
LAYER
  5
B21
330
B1D
100
AcDbSymbolTableRecord
100
AcDbLayerTableRecord
  2
Body_Unfold006_Sketch_Bends
 70
    0
 62
    7
  6
CONTINUOUS
  0
LAYER
  5
B22
330
B1D
100
AcDbSymbolTableRecord
100
AcDbLayerTableRecord
  2
Body_Unfold006_Sketch_Bend_Labels
 70
    0
 62
    7
  6
CONTINUOUS
  0
ENDTAB
  0
TABLE
  2
STYLE
  5
70
330
0
100
AcDbSymbolTable
 70
     2
  0
STYLE
  5
71
330
70
100
AcDbSymbolTableRecord
100
AcDbTextStyleTableRecord
  2
STANDARD
 70
     0
 40
0.0
 41
1.0
 50
0.0
 71
     0
 42
2.5
  3
arial.ttf
  4

  0
STYLE
  5
72
330
70
100
AcDbSymbolTableRecord
100
AcDbTextStyleTableRecord
  2
ANNOTATIVE
 70
     0
 40
0.0
 41
1.0
 50
0.0
 71
     0
 42
2.5
  3
arial.ttf
  4

  0
ENDTAB
  0
TABLE
  2
VIEW
  5
73
330
0
100
AcDbSymbolTable
 70
     0
  0
ENDTAB
  0
TABLE
  2
UCS
  5
74
330
0
100
AcDbSymbolTable
 70
     0
  0
ENDTAB
  0
TABLE
  2
APPID
  5
75
330
0
100
AcDbSymbolTable
 70
     2
  0
APPID
  5
76
330
75
100
AcDbSymbolTableRecord
100
AcDbRegAppTableRecord
  2
ACAD
 70
     0
  0
APPID
  5
77
330
75
100
AcDbSymbolTableRecord
100
AcDbRegAppTableRecord
  2
ACADANNOTATIVE
 70
     0
  0
ENDTAB
  0
TABLE
  2
DIMSTYLE
  5
78
330
0
100
AcDbSymbolTable
 70
     2
  0
DIMSTYLE
105
79
330
78
100
AcDbSymbolTableRecord
100
AcDbDimStyleTableRecord
  2
STANDARD
 70
     0
  3

  4

  5

  6

  7

 40
0.0
 41
2.5
 42
0.625
 43
3.75
 44
1.25
 45
0.0
 46
0.0
 47
0.0
 48
0.0
140
2.5
141
2.5
142
0.0
143
0.03937007874016
144
1.0
145
0.0
146
1.0
147
0.625
 71
     0
 72
     0
 73
     0
 74
     0
 75
     0
 76
     0
 77
     1
 78
     8
170
     0
171
     3
172
     1
173
     0
174
     0
175
     0
176
     0
177
     0
178
     0
270
     2
271
     2
272
     2
273
     2
274
     3
340
71
275
     0
280
     0
281
     0
282
     0
283
     0
284
     8
285
     0
286
     0
287
     3
288
     0
  0
ENDTAB
  0
TABLE
  2
BLOCK_RECORD
  5
A01
330
0
100
AcDbSymbolTable
  70
5
  0
BLOCK_RECORD
  5
A02
330
A01
100
AcDbSymbolTableRecord
100
AcDbBlockTableRecord
  2
*MODEL_SPACE
  0
BLOCK_RECORD
  5
A03
330
A01
100
AcDbSymbolTableRecord
100
AcDbBlockTableRecord
  2
*PAPER_SPACE
  0
ENDTAB
  0
ENDSEC
  0
SECTION
  2
BLOCKS
  0
BLOCK
  5
A04
330
A02
100
AcDbEntity
  8
0
100
AcDbBlockBegin
  2
*MODEL_SPACE
 70
   0
 10
0
 20
0
 30
0
  3
*MODEL_SPACE
  1
 
  0
ENDBLK
  5
A05
330
A02
100
AcDbEntity
  8
0
100
AcDbBlockEnd
  0
BLOCK
  5
A06
330
A03
100
AcDbEntity
 67
1
  8
0
100
AcDbBlockBegin
  2
*PAPER_SPACE
 70
   0
 10
0
 20
0
 30
0
  3
*PAPER_SPACE
  1
 
  0
ENDBLK
  5
A07
330
A03
100
AcDbEntity
 67
    1
  8
0
100
AcDbBlockEnd
  0
ENDSEC
  0
SECTION
  2
ENTITIES
  0
LINE
  5
A08
330
A02
100
AcDbEntity
  8
Body_Unfold006_Sketch
100
AcDbLine
 10
24.113221349
 20
33.810537578
 30
0.000000000
 11
25.640384445
 21
33.810537578
 31
0.000000000
  0
LINE
  5
A09
330
A02
100
AcDbEntity
  8
Body_Unfold006_Sketch
100
AcDbLine
 10
25.640384445
 20
33.810537578
 30
0.000000000
 11
25.640384445
 21
33.435768726
 31
0.000000000
  0
LINE
  5
A0A
330
A02
100
AcDbEntity
  8
Body_Unfold006_Sketch
100
AcDbLine
 10
25.640384445
 20
33.435768726
 30
0.000000000
 11
104.753605794
 21
0.001076639
 31
0.000000000
  0
LINE
  5
A0B
330
A02
100
AcDbEntity
  8
Body_Unfold006_Sketch
100
AcDbLine
 10
104.753605794
 20
0.001076639
 30
0.000000000
 11
104.753605794
 21
0.000000000
 31
0.000000000
  0
LINE
  5
A0C
330
A02
100
AcDbEntity
  8
Body_Unfold006_Sketch
100
AcDbLine
 10
104.753605794
 20
0.000000000
 30
0.000000000
 11
106.280768890
 21
0.000000000
 31
0.000000000
  0
LINE
  5
A0D
330
A02
100
AcDbEntity
  8
Body_Unfold006_Sketch
100
AcDbLine
 10
106.280768890
 20
0.000000000
 30
0.000000000
 11
136.280768890
 21
0.000000000
 31
0.000000000
  0
LINE
  5
A0E
330
A02
100
AcDbEntity
  8
Body_Unfold006_Sketch
100
AcDbLine
 10
136.280768890
 20
0.000000000
 30
0.000000000
 11
136.280768890
 21
94.520000000
 31
0.000000000
  0
LINE
  5
A0F
330
A02
100
AcDbEntity
  8
Body_Unfold006_Sketch
100
AcDbLine
 10
136.280768890
 20
94.520000000
 30
0.000000000
 11
136.280768890
 21
100.017787144
 31
0.000000000
  0
LINE
  5
A10
330
A02
100
AcDbEntity
  8
Body_Unfold006_Sketch
100
AcDbLine
 10
136.280768890
 20
100.017787144
 30
0.000000000
 11
136.280768890
 21
192.017787144
 31
0.000000000
  0
LINE
  5
A11
330
A02
100
AcDbEntity
  8
Body_Unfold006_Sketch
100
AcDbLine
 10
136.280768890
 20
192.017787144
 30
0.000000000
 11
136.280768890
 21
197.515574288
 31
0.000000000
  0
LINE
  5
A12
330
A02
100
AcDbEntity
  8
Body_Unfold006_Sketch
100
AcDbLine
 10
136.280768890
 20
197.515574288
 30
0.000000000
 11
136.280768890
 21
289.515574288
 31
0.000000000
  0
LINE
  5
A13
330
A02
100
AcDbEntity
  8
Body_Unfold006_Sketch
100
AcDbLine
 10
136.280768890
 20
289.515574288
 30
0.000000000
 11
136.280768890
 21
295.013361431
 31
0.000000000
  0
LINE
  5
A14
330
A02
100
AcDbEntity
  8
Body_Unfold006_Sketch
100
AcDbLine
 10
136.280768890
 20
295.013361431
 30
0.000000000
 11
136.280768890
 21
389.533361431
 31
0.000000000
  0
LINE
  5
A15
330
A02
100
AcDbEntity
  8
Body_Unfold006_Sketch
100
AcDbLine
 10
136.280768890
 20
389.533361431
 30
0.000000000
 11
106.280768890
 21
389.533361431
 31
0.000000000
  0
LINE
  5
A16
330
A02
100
AcDbEntity
  8
Body_Unfold006_Sketch
100
AcDbLine
 10
106.280768890
 20
389.533361431
 30
0.000000000
 11
104.753605794
 21
389.533361431
 31
0.000000000
  0
LINE
  5
A17
330
A02
100
AcDbEntity
  8
Body_Unfold006_Sketch
100
AcDbLine
 10
104.753605794
 20
389.533361431
 30
0.000000000
 11
104.753605794
 21
389.532284792
 31
0.000000000
  0
LINE
  5
A18
330
A02
100
AcDbEntity
  8
Body_Unfold006_Sketch
100
AcDbLine
 10
104.753605794
 20
389.532284792
 30
0.000000000
 11
25.640384445
 21
356.097592705
 31
0.000000000
  0
LINE
  5
A19
330
A02
100
AcDbEntity
  8
Body_Unfold006_Sketch
100
AcDbLine
 10
25.640384445
 20
356.097592705
 30
0.000000000
 11
25.640384445
 21
355.722823853
 31
0.000000000
  0
LINE
  5
A1A
330
A02
100
AcDbEntity
  8
Body_Unfold006_Sketch
100
AcDbLine
 10
25.640384445
 20
355.722823853
 30
0.000000000
 11
24.113221349
 21
355.722823853
 31
0.000000000
  0
LINE
  5
A1B
330
A02
100
AcDbEntity
  8
Body_Unfold006_Sketch
100
AcDbLine
 10
24.113221349
 20
355.722823853
 30
0.000000000
 11
0.000000000
 21
355.722823853
 31
0.000000000
  0
LINE
  5
A1C
330
A02
100
AcDbEntity
  8
Body_Unfold006_Sketch
100
AcDbLine
 10
0.000000000
 20
355.722823853
 30
0.000000000
 11
0.000000000
 21
326.303899009
 31
0.000000000
  0
LINE
  5
A1D
330
A02
100
AcDbEntity
  8
Body_Unfold006_Sketch
100
AcDbLine
 10
0.000000000
 20
326.303899009
 30
0.000000000
 11
24.113221349
 21
326.303899009
 31
0.000000000
  0
LINE
  5
A1E
330
A02
100
AcDbEntity
  8
Body_Unfold006_Sketch
100
AcDbLine
 10
24.113221349
 20
326.303899009
 30
0.000000000
 11
25.640384445
 21
326.303899009
 31
0.000000000
  0
LINE
  5
A1F
330
A02
100
AcDbEntity
  8
Body_Unfold006_Sketch
100
AcDbLine
 10
25.640384445
 20
326.303899009
 30
0.000000000
 11
25.640384445
 21
325.929130158
 31
0.000000000
  0
LINE
  5
A20
330
A02
100
AcDbEntity
  8
Body_Unfold006_Sketch
100
AcDbLine
 10
25.640384445
 20
325.929130158
 30
0.000000000
 11
98.793325349
 21
295.013361431
 31
0.000000000
  0
LINE
  5
A21
330
A02
100
AcDbEntity
  8
Body_Unfold006_Sketch
100
AcDbLine
 10
98.793325349
 20
295.013361431
 30
0.000000000
 11
104.753605794
 21
295.013361431
 31
0.000000000
  0
LINE
  5
A22
330
A02
100
AcDbEntity
  8
Body_Unfold006_Sketch
100
AcDbLine
 10
104.753605794
 20
295.013361431
 30
0.000000000
 11
106.280768890
 21
295.013361431
 31
0.000000000
  0
LINE
  5
A23
330
A02
100
AcDbEntity
  8
Body_Unfold006_Sketch
100
AcDbLine
 10
106.280768890
 20
295.013361431
 30
0.000000000
 11
106.280768890
 21
289.515574288
 31
0.000000000
  0
LINE
  5
A24
330
A02
100
AcDbEntity
  8
Body_Unfold006_Sketch
100
AcDbLine
 10
106.280768890
 20
289.515574288
 30
0.000000000
 11
104.753605794
 21
289.515574288
 31
0.000000000
  0
LINE
  5
A25
330
A02
100
AcDbEntity
  8
Body_Unfold006_Sketch
100
AcDbLine
 10
104.753605794
 20
289.515574288
 30
0.000000000
 11
98.793325349
 21
289.515574288
 31
0.000000000
  0
LINE
  5
A26
330
A02
100
AcDbEntity
  8
Body_Unfold006_Sketch
100
AcDbLine
 10
98.793325349
 20
289.515574288
 30
0.000000000
 11
25.640384445
 21
258.599805561
 31
0.000000000
  0
LINE
  5
A27
330
A02
100
AcDbEntity
  8
Body_Unfold006_Sketch
100
AcDbLine
 10
25.640384445
 20
258.599805561
 30
0.000000000
 11
25.640384445
 21
258.225036709
 31
0.000000000
  0
LINE
  5
A28
330
A02
100
AcDbEntity
  8
Body_Unfold006_Sketch
100
AcDbLine
 10
25.640384445
 20
258.225036709
 30
0.000000000
 11
24.113221349
 21
258.225036709
 31
0.000000000
  0
LINE
  5
A29
330
A02
100
AcDbEntity
  8
Body_Unfold006_Sketch
100
AcDbLine
 10
24.113221349
 20
258.225036709
 30
0.000000000
 11
0.000000000
 21
258.225036709
 31
0.000000000
  0
LINE
  5
A2A
330
A02
100
AcDbEntity
  8
Body_Unfold006_Sketch
100
AcDbLine
 10
0.000000000
 20
258.225036709
 30
0.000000000
 11
0.000000000
 21
228.806111866
 31
0.000000000
  0
LINE
  5
A2B
330
A02
100
AcDbEntity
  8
Body_Unfold006_Sketch
100
AcDbLine
 10
0.000000000
 20
228.806111866
 30
0.000000000
 11
24.113221349
 21
228.806111866
 31
0.000000000
  0
LINE
  5
A2C
330
A02
100
AcDbEntity
  8
Body_Unfold006_Sketch
100
AcDbLine
 10
24.113221349
 20
228.806111866
 30
0.000000000
 11
25.640384445
 21
228.806111866
 31
0.000000000
  0
LINE
  5
A2D
330
A02
100
AcDbEntity
  8
Body_Unfold006_Sketch
100
AcDbLine
 10
25.640384445
 20
228.806111866
 30
0.000000000
 11
25.640384445
 21
228.431343014
 31
0.000000000
  0
LINE
  5
A2E
330
A02
100
AcDbEntity
  8
Body_Unfold006_Sketch
100
AcDbLine
 10
25.640384445
 20
228.431343014
 30
0.000000000
 11
98.793325349
 21
197.515574288
 31
0.000000000
  0
LINE
  5
A2F
330
A02
100
AcDbEntity
  8
Body_Unfold006_Sketch
100
AcDbLine
 10
98.793325349
 20
197.515574288
 30
0.000000000
 11
104.753605794
 21
197.515574288
 31
0.000000000
  0
LINE
  5
A30
330
A02
100
AcDbEntity
  8
Body_Unfold006_Sketch
100
AcDbLine
 10
104.753605794
 20
197.515574288
 30
0.000000000
 11
106.280768890
 21
197.515574288
 31
0.000000000
  0
LINE
  5
A31
330
A02
100
AcDbEntity
  8
Body_Unfold006_Sketch
100
AcDbLine
 10
106.280768890
 20
197.515574288
 30
0.000000000
 11
106.280768890
 21
192.017787144
 31
0.000000000
  0
LINE
  5
A32
330
A02
100
AcDbEntity
  8
Body_Unfold006_Sketch
100
AcDbLine
 10
106.280768890
 20
192.017787144
 30
0.000000000
 11
104.753605794
 21
192.017787144
 31
0.000000000
  0
LINE
  5
A33
330
A02
100
AcDbEntity
  8
Body_Unfold006_Sketch
100
AcDbLine
 10
104.753605794
 20
192.017787144
 30
0.000000000
 11
98.793325349
 21
192.017787144
 31
0.000000000
  0
LINE
  5
A34
330
A02
100
AcDbEntity
  8
Body_Unfold006_Sketch
100
AcDbLine
 10
98.793325349
 20
192.017787144
 30
0.000000000
 11
25.640384445
 21
161.102018417
 31
0.000000000
  0
LINE
  5
A35
330
A02
100
AcDbEntity
  8
Body_Unfold006_Sketch
100
AcDbLine
 10
25.640384445
 20
161.102018417
 30
0.000000000
 11
25.640384445
 21
160.727249566
 31
0.000000000
  0
LINE
  5
A36
330
A02
100
AcDbEntity
  8
Body_Unfold006_Sketch
100
AcDbLine
 10
25.640384445
 20
160.727249566
 30
0.000000000
 11
24.113221349
 21
160.727249566
 31
0.000000000
  0
LINE
  5
A37
330
A02
100
AcDbEntity
  8
Body_Unfold006_Sketch
100
AcDbLine
 10
24.113221349
 20
160.727249566
 30
0.000000000
 11
0.000000000
 21
160.727249566
 31
0.000000000
  0
LINE
  5
A38
330
A02
100
AcDbEntity
  8
Body_Unfold006_Sketch
100
AcDbLine
 10
0.000000000
 20
160.727249566
 30
0.000000000
 11
0.000000000
 21
131.308324722
 31
0.000000000
  0
LINE
  5
A39
330
A02
100
AcDbEntity
  8
Body_Unfold006_Sketch
100
AcDbLine
 10
0.000000000
 20
131.308324722
 30
0.000000000
 11
24.113221349
 21
131.308324722
 31
0.000000000
  0
LINE
  5
A3A
330
A02
100
AcDbEntity
  8
Body_Unfold006_Sketch
100
AcDbLine
 10
24.113221349
 20
131.308324722
 30
0.000000000
 11
25.640384445
 21
131.308324722
 31
0.000000000
  0
LINE
  5
A3B
330
A02
100
AcDbEntity
  8
Body_Unfold006_Sketch
100
AcDbLine
 10
25.640384445
 20
131.308324722
 30
0.000000000
 11
25.640384445
 21
130.933555870
 31
0.000000000
  0
LINE
  5
A3C
330
A02
100
AcDbEntity
  8
Body_Unfold006_Sketch
100
AcDbLine
 10
25.640384445
 20
130.933555870
 30
0.000000000
 11
98.793325349
 21
100.017787144
 31
0.000000000
  0
LINE
  5
A3D
330
A02
100
AcDbEntity
  8
Body_Unfold006_Sketch
100
AcDbLine
 10
98.793325349
 20
100.017787144
 30
0.000000000
 11
104.753605794
 21
100.017787144
 31
0.000000000
  0
LINE
  5
A3E
330
A02
100
AcDbEntity
  8
Body_Unfold006_Sketch
100
AcDbLine
 10
104.753605794
 20
100.017787144
 30
0.000000000
 11
106.280768890
 21
100.017787144
 31
0.000000000
  0
LINE
  5
A3F
330
A02
100
AcDbEntity
  8
Body_Unfold006_Sketch
100
AcDbLine
 10
106.280768890
 20
100.017787144
 30
0.000000000
 11
106.280768890
 21
94.520000000
 31
0.000000000
  0
LINE
  5
A40
330
A02
100
AcDbEntity
  8
Body_Unfold006_Sketch
100
AcDbLine
 10
106.280768890
 20
94.520000000
 30
0.000000000
 11
104.753605794
 21
94.520000000
 31
0.000000000
  0
LINE
  5
A41
330
A02
100
AcDbEntity
  8
Body_Unfold006_Sketch
100
AcDbLine
 10
104.753605794
 20
94.520000000
 30
0.000000000
 11
98.793325349
 21
94.520000000
 31
0.000000000
  0
LINE
  5
A42
330
A02
100
AcDbEntity
  8
Body_Unfold006_Sketch
100
AcDbLine
 10
98.793325349
 20
94.520000000
 30
0.000000000
 11
25.640384445
 21
63.604231274
 31
0.000000000
  0
LINE
  5
A43
330
A02
100
AcDbEntity
  8
Body_Unfold006_Sketch
100
AcDbLine
 10
25.640384445
 20
63.604231274
 30
0.000000000
 11
25.640384445
 21
63.229462422
 31
0.000000000
  0
LINE
  5
A44
330
A02
100
AcDbEntity
  8
Body_Unfold006_Sketch
100
AcDbLine
 10
25.640384445
 20
63.229462422
 30
0.000000000
 11
24.113221349
 21
63.229462422
 31
0.000000000
  0
LINE
  5
A45
330
A02
100
AcDbEntity
  8
Body_Unfold006_Sketch
100
AcDbLine
 10
24.113221349
 20
63.229462422
 30
0.000000000
 11
0.000000000
 21
63.229462422
 31
0.000000000
  0
LINE
  5
A46
330
A02
100
AcDbEntity
  8
Body_Unfold006_Sketch
100
AcDbLine
 10
0.000000000
 20
63.229462422
 30
0.000000000
 11
0.000000000
 21
33.810537578
 31
0.000000000
  0
LINE
  5
A47
330
A02
100
AcDbEntity
  8
Body_Unfold006_Sketch
100
AcDbLine
 10
0.000000000
 20
33.810537578
 30
0.000000000
 11
24.113221349
 21
33.810537578
 31
0.000000000
  0
LINE
  5
A48
330
A02
100
AcDbEntity
  8
Body_Unfold006_Sketch_Bends
100
AcDbLine
 10
106.280768890
 20
292.264467859
 30
0.000000000
 11
136.280768890
 21
292.264467859
 31
0.000000000
  0
LINE
  5
A49
330
A02
100
AcDbEntity
  8
Body_Unfold006_Sketch_Bends
100
AcDbLine
 10
105.517187342
 20
389.533361431
 30
0.000000000
 11
105.517187342
 21
295.013361431
 31
0.000000000
  0
LINE
  5
A4A
330
A02
100
AcDbEntity
  8
Body_Unfold006_Sketch_Bends
100
AcDbLine
 10
106.280768890
 20
194.766680716
 30
0.000000000
 11
136.280768890
 21
194.766680716
 31
0.000000000
  0
LINE
  5
A4B
330
A02
100
AcDbEntity
  8
Body_Unfold006_Sketch_Bends
100
AcDbLine
 10
105.517187342
 20
289.515574288
 30
0.000000000
 11
105.517187342
 21
197.515574288
 31
0.000000000
  0
LINE
  5
A4C
330
A02
100
AcDbEntity
  8
Body_Unfold006_Sketch_Bends
100
AcDbLine
 10
24.876802897
 20
355.722823853
 30
0.000000000
 11
24.876802897
 21
326.303899009
 31
0.000000000
  0
LINE
  5
A4D
330
A02
100
AcDbEntity
  8
Body_Unfold006_Sketch_Bends
100
AcDbLine
 10
106.280768890
 20
97.268893572
 30
0.000000000
 11
136.280768890
 21
97.268893572
 31
0.000000000
  0
LINE
  5
A4E
330
A02
100
AcDbEntity
  8
Body_Unfold006_Sketch_Bends
100
AcDbLine
 10
105.517187342
 20
192.017787144
 30
0.000000000
 11
105.517187342
 21
100.017787144
 31
0.000000000
  0
LINE
  5
A4F
330
A02
100
AcDbEntity
  8
Body_Unfold006_Sketch_Bends
100
AcDbLine
 10
24.876802897
 20
258.225036709
 30
0.000000000
 11
24.876802897
 21
228.806111866
 31
0.000000000
  0
LINE
  5
A50
330
A02
100
AcDbEntity
  8
Body_Unfold006_Sketch_Bends
100
AcDbLine
 10
105.517187342
 20
94.520000000
 30
0.000000000
 11
105.517187342
 21
0.000000000
 31
0.000000000
  0
LINE
  5
A51
330
A02
100
AcDbEntity
  8
Body_Unfold006_Sketch_Bends
100
AcDbLine
 10
24.876802897
 20
160.727249566
 30
0.000000000
 11
24.876802897
 21
131.308324722
 31
0.000000000
  0
LINE
  5
A52
330
A02
100
AcDbEntity
  8
Body_Unfold006_Sketch_Bends
100
AcDbLine
 10
24.876802897
 20
63.229462422
 30
0.000000000
 11
24.876802897
 21
33.810537578
 31
0.000000000
  0
LINE
  5
A53
330
A02
100
AcDbEntity
  8
Body_Unfold006_Sketch_Bend_Labels
100
AcDbLine
 10
118.080768890
 20
293.931134526
 30
0.000000000
 11
119.280768890
 21
293.931134526
 31
0.000000000
  0
LINE
  5
A54
330
A02
100
AcDbEntity
  8
Body_Unfold006_Sketch_Bend_Labels
100
AcDbLine
 10
120.880768890
 20
294.131134526
 30
0.000000000
 11
120.080768890
 21
294.131134526
 31
0.000000000
  0
ARC
  5
A55
330
A02
100
AcDbEntity
  8
Body_Unfold006_Sketch_Bend_Labels
100
AcDbCircle
 10
120.080768890
 20
294.531134526
 30
0.000000000
 40
0.400000000
100
AcDbArc
 50
90.000000000
 51
-90.000000000
  0
LINE
  5
A56
330
A02
100
AcDbEntity
  8
Body_Unfold006_Sketch_Bend_Labels
100
AcDbLine
 10
120.080768890
 20
294.931134526
 30
0.000000000
 11
120.480768890
 21
294.931134526
 31
0.000000000
  0
ARC
  5
A57
330
A02
100
AcDbEntity
  8
Body_Unfold006_Sketch_Bend_Labels
100
AcDbCircle
 10
120.480768890
 20
294.531134526
 30
0.000000000
 40
0.400000000
100
AcDbArc
 50
0.000000000
 51
90.000000000
  0
LINE
  5
A58
330
A02
100
AcDbEntity
  8
Body_Unfold006_Sketch_Bend_Labels
100
AcDbLine
 10
120.880768890
 20
294.531134526
 30
0.000000000
 11
120.880768890
 21
293.331134526
 31
0.000000000
  0
ARC
  5
A59
330
A02
100
AcDbEntity
  8
Body_Unfold006_Sketch_Bend_Labels
100
AcDbCircle
 10
120.480768890
 20
293.331134526
 30
0.000000000
 40
0.400000000
100
AcDbArc
 50
-90.000000000
 51
-0.000000000
  0
LINE
  5
A5A
330
A02
100
AcDbEntity
  8
Body_Unfold006_Sketch_Bend_Labels
100
AcDbLine
 10
120.480768890
 20
292.931134526
 30
0.000000000
 11
120.080768890
 21
292.931134526
 31
0.000000000
  0
ARC
  5
A5B
330
A02
100
AcDbEntity
  8
Body_Unfold006_Sketch_Bend_Labels
100
AcDbCircle
 10
120.080768890
 20
293.331134526
 30
0.000000000
 40
0.400000000
100
AcDbArc
 50
-180.000000000
 51
-90.000000000
  0
LINE
  5
A5C
330
A02
100
AcDbEntity
  8
Body_Unfold006_Sketch_Bend_Labels
100
AcDbLine
 10
121.280768890
 20
293.331134526
 30
0.000000000
 11
121.280768890
 21
294.531134526
 31
0.000000000
  0
ARC
  5
A5D
330
A02
100
AcDbEntity
  8
Body_Unfold006_Sketch_Bend_Labels
100
AcDbCircle
 10
121.680768890
 20
294.531134526
 30
0.000000000
 40
0.400000000
100
AcDbArc
 50
90.000000000
 51
180.000000000
  0
LINE
  5
A5E
330
A02
100
AcDbEntity
  8
Body_Unfold006_Sketch_Bend_Labels
100
AcDbLine
 10
121.680768890
 20
294.931134526
 30
0.000000000
 11
122.080768890
 21
294.931134526
 31
0.000000000
  0
ARC
  5
A5F
330
A02
100
AcDbEntity
  8
Body_Unfold006_Sketch_Bend_Labels
100
AcDbCircle
 10
122.080768890
 20
294.531134526
 30
0.000000000
 40
0.400000000
100
AcDbArc
 50
0.000000000
 51
90.000000000
  0
LINE
  5
A60
330
A02
100
AcDbEntity
  8
Body_Unfold006_Sketch_Bend_Labels
100
AcDbLine
 10
122.480768890
 20
294.531134526
 30
0.000000000
 11
122.480768890
 21
293.331134526
 31
0.000000000
  0
ARC
  5
A61
330
A02
100
AcDbEntity
  8
Body_Unfold006_Sketch_Bend_Labels
100
AcDbCircle
 10
122.080768890
 20
293.331134526
 30
0.000000000
 40
0.400000000
100
AcDbArc
 50
-90.000000000
 51
-0.000000000
  0
LINE
  5
A62
330
A02
100
AcDbEntity
  8
Body_Unfold006_Sketch_Bend_Labels
100
AcDbLine
 10
122.080768890
 20
292.931134526
 30
0.000000000
 11
121.680768890
 21
292.931134526
 31
0.000000000
  0
ARC
  5
A63
330
A02
100
AcDbEntity
  8
Body_Unfold006_Sketch_Bend_Labels
100
AcDbCircle
 10
121.680768890
 20
293.331134526
 30
0.000000000
 40
0.400000000
100
AcDbArc
 50
-180.000000000
 51
-90.000000000
  0
CIRCLE
  5
A64
330
A02
100
AcDbEntity
  8
Body_Unfold006_Sketch_Bend_Labels
100
AcDbCircle
 10
123.280768890
 20
294.531134526
 30
0.000000000
 40
0.400000000
  0
LINE
  5
A65
330
A02
100
AcDbEntity
  8
Body_Unfold006_Sketch_Bend_Labels
100
AcDbLine
 10
107.183854009
 20
346.273361431
 30
0.000000000
 11
107.183854009
 21
345.073361431
 31
0.000000000
  0
LINE
  5
A66
330
A02
100
AcDbEntity
  8
Body_Unfold006_Sketch_Bend_Labels
100
AcDbLine
 10
108.183854009
 20
344.673361431
 30
0.000000000
 11
108.183854009
 21
344.073361431
 31
0.000000000
  0
LINE
  5
A67
330
A02
100
AcDbEntity
  8
Body_Unfold006_Sketch_Bend_Labels
100
AcDbLine
 10
108.183854009
 20
344.073361431
 30
0.000000000
 11
106.183854009
 21
344.073361431
 31
0.000000000
  0
LINE
  5
A68
330
A02
100
AcDbEntity
  8
Body_Unfold006_Sketch_Bend_Labels
100
AcDbLine
 10
106.183854009
 20
344.673361431
 30
0.000000000
 11
106.183854009
 21
343.473361431
 31
0.000000000
  0
LINE
  5
A69
330
A02
100
AcDbEntity
  8
Body_Unfold006_Sketch_Bend_Labels
100
AcDbLine
 10
108.183854009
 20
341.873361431
 30
0.000000000
 11
108.183854009
 21
343.073361431
 31
0.000000000
  0
LINE
  5
A6A
330
A02
100
AcDbEntity
  8
Body_Unfold006_Sketch_Bend_Labels
100
AcDbLine
 10
108.183854009
 20
343.073361431
 30
0.000000000
 11
107.383854009
 21
343.073361431
 31
0.000000000
  0
LINE
  5
A6B
330
A02
100
AcDbEntity
  8
Body_Unfold006_Sketch_Bend_Labels
100
AcDbLine
 10
107.383854009
 20
343.073361431
 30
0.000000000
 11
107.383854009
 21
342.273361431
 31
0.000000000
  0
ARC
  5
A6C
330
A02
100
AcDbEntity
  8
Body_Unfold006_Sketch_Bend_Labels
100
AcDbCircle
 10
106.983854009
 20
342.273361431
 30
0.000000000
 40
0.400000000
100
AcDbArc
 50
-90.000000000
 51
0.000000000
  0
LINE
  5
A6D
330
A02
100
AcDbEntity
  8
Body_Unfold006_Sketch_Bend_Labels
100
AcDbLine
 10
106.983854009
 20
341.873361431
 30
0.000000000
 11
106.583854009
 21
341.873361431
 31
0.000000000
  0
ARC
  5
A6E
330
A02
100
AcDbEntity
  8
Body_Unfold006_Sketch_Bend_Labels
100
AcDbCircle
 10
106.583854009
 20
342.273361431
 30
0.000000000
 40
0.400000000
100
AcDbArc
 50
180.000000000
 51
-90.000000000
  0
LINE
  5
A6F
330
A02
100
AcDbEntity
  8
Body_Unfold006_Sketch_Bend_Labels
100
AcDbLine
 10
106.183854009
 20
342.273361431
 30
0.000000000
 11
106.183854009
 21
343.073361431
 31
0.000000000
  0
LINE
  5
A70
330
A02
100
AcDbEntity
  8
Body_Unfold006_Sketch_Bend_Labels
100
AcDbLine
 10
108.183854009
 20
340.273361431
 30
0.000000000
 11
108.183854009
 21
341.473361431
 31
0.000000000
  0
LINE
  5
A71
330
A02
100
AcDbEntity
  8
Body_Unfold006_Sketch_Bend_Labels
100
AcDbLine
 10
108.183854009
 20
341.473361431
 30
0.000000000
 11
107.383854009
 21
341.473361431
 31
0.000000000
  0
LINE
  5
A72
330
A02
100
AcDbEntity
  8
Body_Unfold006_Sketch_Bend_Labels
100
AcDbLine
 10
107.383854009
 20
341.473361431
 30
0.000000000
 11
107.383854009
 21
340.673361431
 31
0.000000000
  0
ARC
  5
A73
330
A02
100
AcDbEntity
  8
Body_Unfold006_Sketch_Bend_Labels
100
AcDbCircle
 10
106.983854009
 20
340.673361431
 30
0.000000000
 40
0.400000000
100
AcDbArc
 50
-90.000000000
 51
-0.000000000
  0
LINE
  5
A74
330
A02
100
AcDbEntity
  8
Body_Unfold006_Sketch_Bend_Labels
100
AcDbLine
 10
106.983854009
 20
340.273361431
 30
0.000000000
 11
106.583854009
 21
340.273361431
 31
0.000000000
  0
ARC
  5
A75
330
A02
100
AcDbEntity
  8
Body_Unfold006_Sketch_Bend_Labels
100
AcDbCircle
 10
106.583854009
 20
340.673361431
 30
0.000000000
 40
0.400000000
100
AcDbArc
 50
-180.000000000
 51
-90.000000000
  0
LINE
  5
A76
330
A02
100
AcDbEntity
  8
Body_Unfold006_Sketch_Bend_Labels
100
AcDbLine
 10
106.183854009
 20
340.673361431
 30
0.000000000
 11
106.183854009
 21
341.473361431
 31
0.000000000
  0
CIRCLE
  5
A77
330
A02
100
AcDbEntity
  8
Body_Unfold006_Sketch_Bend_Labels
100
AcDbCircle
 10
107.783854009
 20
339.473361431
 30
0.000000000
 40
0.400000000
  0
LINE
  5
A78
330
A02
100
AcDbEntity
  8
Body_Unfold006_Sketch_Bend_Labels
100
AcDbLine
 10
118.080768890
 20
196.433347382
 30
0.000000000
 11
119.280768890
 21
196.433347382
 31
0.000000000
  0
LINE
  5
A79
330
A02
100
AcDbEntity
  8
Body_Unfold006_Sketch_Bend_Labels
100
AcDbLine
 10
120.880768890
 20
196.633347382
 30
0.000000000
 11
120.080768890
 21
196.633347382
 31
0.000000000
  0
ARC
  5
A7A
330
A02
100
AcDbEntity
  8
Body_Unfold006_Sketch_Bend_Labels
100
AcDbCircle
 10
120.080768890
 20
197.033347382
 30
0.000000000
 40
0.400000000
100
AcDbArc
 50
90.000000000
 51
-90.000000000
  0
LINE
  5
A7B
330
A02
100
AcDbEntity
  8
Body_Unfold006_Sketch_Bend_Labels
100
AcDbLine
 10
120.080768890
 20
197.433347382
 30
0.000000000
 11
120.480768890
 21
197.433347382
 31
0.000000000
  0
ARC
  5
A7C
330
A02
100
AcDbEntity
  8
Body_Unfold006_Sketch_Bend_Labels
100
AcDbCircle
 10
120.480768890
 20
197.033347382
 30
0.000000000
 40
0.400000000
100
AcDbArc
 50
-0.000000000
 51
90.000000000
  0
LINE
  5
A7D
330
A02
100
AcDbEntity
  8
Body_Unfold006_Sketch_Bend_Labels
100
AcDbLine
 10
120.880768890
 20
197.033347382
 30
0.000000000
 11
120.880768890
 21
195.833347382
 31
0.000000000
  0
ARC
  5
A7E
330
A02
100
AcDbEntity
  8
Body_Unfold006_Sketch_Bend_Labels
100
AcDbCircle
 10
120.480768890
 20
195.833347382
 30
0.000000000
 40
0.400000000
100
AcDbArc
 50
-90.000000000
 51
0.000000000
  0
LINE
  5
A7F
330
A02
100
AcDbEntity
  8
Body_Unfold006_Sketch_Bend_Labels
100
AcDbLine
 10
120.480768890
 20
195.433347382
 30
0.000000000
 11
120.080768890
 21
195.433347382
 31
0.000000000
  0
ARC
  5
A80
330
A02
100
AcDbEntity
  8
Body_Unfold006_Sketch_Bend_Labels
100
AcDbCircle
 10
120.080768890
 20
195.833347382
 30
0.000000000
 40
0.400000000
100
AcDbArc
 50
180.000000000
 51
-90.000000000
  0
LINE
  5
A81
330
A02
100
AcDbEntity
  8
Body_Unfold006_Sketch_Bend_Labels
100
AcDbLine
 10
121.280768890
 20
195.833347382
 30
0.000000000
 11
121.280768890
 21
197.033347382
 31
0.000000000
  0
ARC
  5
A82
330
A02
100
AcDbEntity
  8
Body_Unfold006_Sketch_Bend_Labels
100
AcDbCircle
 10
121.680768890
 20
197.033347382
 30
0.000000000
 40
0.400000000
100
AcDbArc
 50
90.000000000
 51
-180.000000000
  0
LINE
  5
A83
330
A02
100
AcDbEntity
  8
Body_Unfold006_Sketch_Bend_Labels
100
AcDbLine
 10
121.680768890
 20
197.433347382
 30
0.000000000
 11
122.080768890
 21
197.433347382
 31
0.000000000
  0
ARC
  5
A84
330
A02
100
AcDbEntity
  8
Body_Unfold006_Sketch_Bend_Labels
100
AcDbCircle
 10
122.080768890
 20
197.033347382
 30
0.000000000
 40
0.400000000
100
AcDbArc
 50
0.000000000
 51
90.000000000
  0
LINE
  5
A85
330
A02
100
AcDbEntity
  8
Body_Unfold006_Sketch_Bend_Labels
100
AcDbLine
 10
122.480768890
 20
197.033347382
 30
0.000000000
 11
122.480768890
 21
195.833347382
 31
0.000000000
  0
ARC
  5
A86
330
A02
100
AcDbEntity
  8
Body_Unfold006_Sketch_Bend_Labels
100
AcDbCircle
 10
122.080768890
 20
195.833347382
 30
0.000000000
 40
0.400000000
100
AcDbArc
 50
-90.000000000
 51
0.000000000
  0
LINE
  5
A87
330
A02
100
AcDbEntity
  8
Body_Unfold006_Sketch_Bend_Labels
100
AcDbLine
 10
122.080768890
 20
195.433347382
 30
0.000000000
 11
121.680768890
 21
195.433347382
 31
0.000000000
  0
ARC
  5
A88
330
A02
100
AcDbEntity
  8
Body_Unfold006_Sketch_Bend_Labels
100
AcDbCircle
 10
121.680768890
 20
195.833347382
 30
0.000000000
 40
0.400000000
100
AcDbArc
 50
180.000000000
 51
-90.000000000
  0
CIRCLE
  5
A89
330
A02
100
AcDbEntity
  8
Body_Unfold006_Sketch_Bend_Labels
100
AcDbCircle
 10
123.280768890
 20
197.033347382
 30
0.000000000
 40
0.400000000
  0
LINE
  5
A8A
330
A02
100
AcDbEntity
  8
Body_Unfold006_Sketch_Bend_Labels
100
AcDbLine
 10
107.183854009
 20
247.515574288
 30
0.000000000
 11
107.183854009
 21
246.315574288
 31
0.000000000
  0
LINE
  5
A8B
330
A02
100
AcDbEntity
  8
Body_Unfold006_Sketch_Bend_Labels
100
AcDbLine
 10
108.183854009
 20
245.915574288
 30
0.000000000
 11
108.183854009
 21
245.315574288
 31
0.000000000
  0
LINE
  5
A8C
330
A02
100
AcDbEntity
  8
Body_Unfold006_Sketch_Bend_Labels
100
AcDbLine
 10
108.183854009
 20
245.315574288
 30
0.000000000
 11
106.183854009
 21
245.315574288
 31
0.000000000
  0
LINE
  5
A8D
330
A02
100
AcDbEntity
  8
Body_Unfold006_Sketch_Bend_Labels
100
AcDbLine
 10
106.183854009
 20
245.915574288
 30
0.000000000
 11
106.183854009
 21
244.715574288
 31
0.000000000
  0
LINE
  5
A8E
330
A02
100
AcDbEntity
  8
Body_Unfold006_Sketch_Bend_Labels
100
AcDbLine
 10
108.183854009
 20
243.115574288
 30
0.000000000
 11
108.183854009
 21
244.315574288
 31
0.000000000
  0
LINE
  5
A8F
330
A02
100
AcDbEntity
  8
Body_Unfold006_Sketch_Bend_Labels
100
AcDbLine
 10
108.183854009
 20
244.315574288
 30
0.000000000
 11
107.383854009
 21
244.315574288
 31
0.000000000
  0
LINE
  5
A90
330
A02
100
AcDbEntity
  8
Body_Unfold006_Sketch_Bend_Labels
100
AcDbLine
 10
107.383854009
 20
244.315574288
 30
0.000000000
 11
107.383854009
 21
243.515574288
 31
0.000000000
  0
ARC
  5
A91
330
A02
100
AcDbEntity
  8
Body_Unfold006_Sketch_Bend_Labels
100
AcDbCircle
 10
106.983854009
 20
243.515574288
 30
0.000000000
 40
0.400000000
100
AcDbArc
 50
-90.000000000
 51
0.000000000
  0
LINE
  5
A92
330
A02
100
AcDbEntity
  8
Body_Unfold006_Sketch_Bend_Labels
100
AcDbLine
 10
106.983854009
 20
243.115574288
 30
0.000000000
 11
106.583854009
 21
243.115574288
 31
0.000000000
  0
ARC
  5
A93
330
A02
100
AcDbEntity
  8
Body_Unfold006_Sketch_Bend_Labels
100
AcDbCircle
 10
106.583854009
 20
243.515574288
 30
0.000000000
 40
0.400000000
100
AcDbArc
 50
180.000000000
 51
-90.000000000
  0
LINE
  5
A94
330
A02
100
AcDbEntity
  8
Body_Unfold006_Sketch_Bend_Labels
100
AcDbLine
 10
106.183854009
 20
243.515574288
 30
0.000000000
 11
106.183854009
 21
244.315574288
 31
0.000000000
  0
LINE
  5
A95
330
A02
100
AcDbEntity
  8
Body_Unfold006_Sketch_Bend_Labels
100
AcDbLine
 10
108.183854009
 20
241.515574288
 30
0.000000000
 11
108.183854009
 21
242.715574288
 31
0.000000000
  0
LINE
  5
A96
330
A02
100
AcDbEntity
  8
Body_Unfold006_Sketch_Bend_Labels
100
AcDbLine
 10
108.183854009
 20
242.715574288
 30
0.000000000
 11
107.383854009
 21
242.715574288
 31
0.000000000
  0
LINE
  5
A97
330
A02
100
AcDbEntity
  8
Body_Unfold006_Sketch_Bend_Labels
100
AcDbLine
 10
107.383854009
 20
242.715574288
 30
0.000000000
 11
107.383854009
 21
241.915574288
 31
0.000000000
  0
ARC
  5
A98
330
A02
100
AcDbEntity
  8
Body_Unfold006_Sketch_Bend_Labels
100
AcDbCircle
 10
106.983854009
 20
241.915574288
 30
0.000000000
 40
0.400000000
100
AcDbArc
 50
-90.000000000
 51
0.000000000
  0
LINE
  5
A99
330
A02
100
AcDbEntity
  8
Body_Unfold006_Sketch_Bend_Labels
100
AcDbLine
 10
106.983854009
 20
241.515574288
 30
0.000000000
 11
106.583854009
 21
241.515574288
 31
0.000000000
  0
ARC
  5
A9A
330
A02
100
AcDbEntity
  8
Body_Unfold006_Sketch_Bend_Labels
100
AcDbCircle
 10
106.583854009
 20
241.915574288
 30
0.000000000
 40
0.400000000
100
AcDbArc
 50
180.000000000
 51
-90.000000000
  0
LINE
  5
A9B
330
A02
100
AcDbEntity
  8
Body_Unfold006_Sketch_Bend_Labels
100
AcDbLine
 10
106.183854009
 20
241.915574288
 30
0.000000000
 11
106.183854009
 21
242.715574288
 31
0.000000000
  0
CIRCLE
  5
A9C
330
A02
100
AcDbEntity
  8
Body_Unfold006_Sketch_Bend_Labels
100
AcDbCircle
 10
107.783854009
 20
240.715574288
 30
0.000000000
 40
0.400000000
  0
LINE
  5
A9D
330
A02
100
AcDbEntity
  8
Body_Unfold006_Sketch_Bend_Labels
100
AcDbLine
 10
27.543469564
 20
344.213361431
 30
0.000000000
 11
27.543469564
 21
343.613361431
 31
0.000000000
  0
LINE
  5
A9E
330
A02
100
AcDbEntity
  8
Body_Unfold006_Sketch_Bend_Labels
100
AcDbLine
 10
27.543469564
 20
343.613361431
 30
0.000000000
 11
25.543469564
 21
343.613361431
 31
0.000000000
  0
LINE
  5
A9F
330
A02
100
AcDbEntity
  8
Body_Unfold006_Sketch_Bend_Labels
100
AcDbLine
 10
25.543469564
 20
344.213361431
 30
0.000000000
 11
25.543469564
 21
343.013361431
 31
0.000000000
  0
LINE
  5
AA0
330
A02
100
AcDbEntity
  8
Body_Unfold006_Sketch_Bend_Labels
100
AcDbLine
 10
27.543469564
 20
341.413361431
 30
0.000000000
 11
27.543469564
 21
342.613361431
 31
0.000000000
  0
LINE
  5
AA1
330
A02
100
AcDbEntity
  8
Body_Unfold006_Sketch_Bend_Labels
100
AcDbLine
 10
27.543469564
 20
342.613361431
 30
0.000000000
 11
26.743469564
 21
342.613361431
 31
0.000000000
  0
LINE
  5
AA2
330
A02
100
AcDbEntity
  8
Body_Unfold006_Sketch_Bend_Labels
100
AcDbLine
 10
26.743469564
 20
342.613361431
 30
0.000000000
 11
26.743469564
 21
341.813361431
 31
0.000000000
  0
ARC
  5
AA3
330
A02
100
AcDbEntity
  8
Body_Unfold006_Sketch_Bend_Labels
100
AcDbCircle
 10
26.343469564
 20
341.813361431
 30
0.000000000
 40
0.400000000
100
AcDbArc
 50
-90.000000000
 51
-0.000000000
  0
LINE
  5
AA4
330
A02
100
AcDbEntity
  8
Body_Unfold006_Sketch_Bend_Labels
100
AcDbLine
 10
26.343469564
 20
341.413361431
 30
0.000000000
 11
25.943469564
 21
341.413361431
 31
0.000000000
  0
ARC
  5
AA5
330
A02
100
AcDbEntity
  8
Body_Unfold006_Sketch_Bend_Labels
100
AcDbCircle
 10
25.943469564
 20
341.813361431
 30
0.000000000
 40
0.400000000
100
AcDbArc
 50
-180.000000000
 51
-90.000000000
  0
LINE
  5
AA6
330
A02
100
AcDbEntity
  8
Body_Unfold006_Sketch_Bend_Labels
100
AcDbLine
 10
25.543469564
 20
341.813361431
 30
0.000000000
 11
25.543469564
 21
342.613361431
 31
0.000000000
  0
LINE
  5
AA7
330
A02
100
AcDbEntity
  8
Body_Unfold006_Sketch_Bend_Labels
100
AcDbLine
 10
27.543469564
 20
339.813361431
 30
0.000000000
 11
27.543469564
 21
341.013361431
 31
0.000000000
  0
LINE
  5
AA8
330
A02
100
AcDbEntity
  8
Body_Unfold006_Sketch_Bend_Labels
100
AcDbLine
 10
27.543469564
 20
341.013361431
 30
0.000000000
 11
26.743469564
 21
341.013361431
 31
0.000000000
  0
LINE
  5
AA9
330
A02
100
AcDbEntity
  8
Body_Unfold006_Sketch_Bend_Labels
100
AcDbLine
 10
26.743469564
 20
341.013361431
 30
0.000000000
 11
26.743469564
 21
340.213361431
 31
0.000000000
  0
ARC
  5
AAA
330
A02
100
AcDbEntity
  8
Body_Unfold006_Sketch_Bend_Labels
100
AcDbCircle
 10
26.343469564
 20
340.213361431
 30
0.000000000
 40
0.400000000
100
AcDbArc
 50
-90.000000000
 51
0.000000000
  0
LINE
  5
AAB
330
A02
100
AcDbEntity
  8
Body_Unfold006_Sketch_Bend_Labels
100
AcDbLine
 10
26.343469564
 20
339.813361431
 30
0.000000000
 11
25.943469564
 21
339.813361431
 31
0.000000000
  0
ARC
  5
AAC
330
A02
100
AcDbEntity
  8
Body_Unfold006_Sketch_Bend_Labels
100
AcDbCircle
 10
25.943469564
 20
340.213361431
 30
0.000000000
 40
0.400000000
100
AcDbArc
 50
180.000000000
 51
-90.000000000
  0
LINE
  5
AAD
330
A02
100
AcDbEntity
  8
Body_Unfold006_Sketch_Bend_Labels
100
AcDbLine
 10
25.543469564
 20
340.213361431
 30
0.000000000
 11
25.543469564
 21
341.013361431
 31
0.000000000
  0
CIRCLE
  5
AAE
330
A02
100
AcDbEntity
  8
Body_Unfold006_Sketch_Bend_Labels
100
AcDbCircle
 10
27.143469564
 20
339.013361431
 30
0.000000000
 40
0.400000000
  0
LINE
  5
AAF
330
A02
100
AcDbEntity
  8
Body_Unfold006_Sketch_Bend_Labels
100
AcDbLine
 10
118.080768890
 20
98.935560239
 30
0.000000000
 11
119.280768890
 21
98.935560239
 31
0.000000000
  0
LINE
  5
AB0
330
A02
100
AcDbEntity
  8
Body_Unfold006_Sketch_Bend_Labels
100
AcDbLine
 10
120.880768890
 20
99.135560239
 30
0.000000000
 11
120.080768890
 21
99.135560239
 31
0.000000000
  0
ARC
  5
AB1
330
A02
100
AcDbEntity
  8
Body_Unfold006_Sketch_Bend_Labels
100
AcDbCircle
 10
120.080768890
 20
99.535560239
 30
0.000000000
 40
0.400000000
100
AcDbArc
 50
90.000000000
 51
-90.000000000
  0
LINE
  5
AB2
330
A02
100
AcDbEntity
  8
Body_Unfold006_Sketch_Bend_Labels
100
AcDbLine
 10
120.080768890
 20
99.935560239
 30
0.000000000
 11
120.480768890
 21
99.935560239
 31
0.000000000
  0
ARC
  5
AB3
330
A02
100
AcDbEntity
  8
Body_Unfold006_Sketch_Bend_Labels
100
AcDbCircle
 10
120.480768890
 20
99.535560239
 30
0.000000000
 40
0.400000000
100
AcDbArc
 50
0.000000000
 51
90.000000000
  0
LINE
  5
AB4
330
A02
100
AcDbEntity
  8
Body_Unfold006_Sketch_Bend_Labels
100
AcDbLine
 10
120.880768890
 20
99.535560239
 30
0.000000000
 11
120.880768890
 21
98.335560239
 31
0.000000000
  0
ARC
  5
AB5
330
A02
100
AcDbEntity
  8
Body_Unfold006_Sketch_Bend_Labels
100
AcDbCircle
 10
120.480768890
 20
98.335560239
 30
0.000000000
 40
0.400000000
100
AcDbArc
 50
-90.000000000
 51
0.000000000
  0
LINE
  5
AB6
330
A02
100
AcDbEntity
  8
Body_Unfold006_Sketch_Bend_Labels
100
AcDbLine
 10
120.480768890
 20
97.935560239
 30
0.000000000
 11
120.080768890
 21
97.935560239
 31
0.000000000
  0
ARC
  5
AB7
330
A02
100
AcDbEntity
  8
Body_Unfold006_Sketch_Bend_Labels
100
AcDbCircle
 10
120.080768890
 20
98.335560239
 30
0.000000000
 40
0.400000000
100
AcDbArc
 50
180.000000000
 51
-90.000000000
  0
LINE
  5
AB8
330
A02
100
AcDbEntity
  8
Body_Unfold006_Sketch_Bend_Labels
100
AcDbLine
 10
121.280768890
 20
98.335560239
 30
0.000000000
 11
121.280768890
 21
99.535560239
 31
0.000000000
  0
ARC
  5
AB9
330
A02
100
AcDbEntity
  8
Body_Unfold006_Sketch_Bend_Labels
100
AcDbCircle
 10
121.680768890
 20
99.535560239
 30
0.000000000
 40
0.400000000
100
AcDbArc
 50
90.000000000
 51
180.000000000
  0
LINE
  5
ABA
330
A02
100
AcDbEntity
  8
Body_Unfold006_Sketch_Bend_Labels
100
AcDbLine
 10
121.680768890
 20
99.935560239
 30
0.000000000
 11
122.080768890
 21
99.935560239
 31
0.000000000
  0
ARC
  5
ABB
330
A02
100
AcDbEntity
  8
Body_Unfold006_Sketch_Bend_Labels
100
AcDbCircle
 10
122.080768890
 20
99.535560239
 30
0.000000000
 40
0.400000000
100
AcDbArc
 50
0.000000000
 51
90.000000000
  0
LINE
  5
ABC
330
A02
100
AcDbEntity
  8
Body_Unfold006_Sketch_Bend_Labels
100
AcDbLine
 10
122.480768890
 20
99.535560239
 30
0.000000000
 11
122.480768890
 21
98.335560239
 31
0.000000000
  0
ARC
  5
ABD
330
A02
100
AcDbEntity
  8
Body_Unfold006_Sketch_Bend_Labels
100
AcDbCircle
 10
122.080768890
 20
98.335560239
 30
0.000000000
 40
0.400000000
100
AcDbArc
 50
-90.000000000
 51
-0.000000000
  0
LINE
  5
ABE
330
A02
100
AcDbEntity
  8
Body_Unfold006_Sketch_Bend_Labels
100
AcDbLine
 10
122.080768890
 20
97.935560239
 30
0.000000000
 11
121.680768890
 21
97.935560239
 31
0.000000000
  0
ARC
  5
ABF
330
A02
100
AcDbEntity
  8
Body_Unfold006_Sketch_Bend_Labels
100
AcDbCircle
 10
121.680768890
 20
98.335560239
 30
0.000000000
 40
0.400000000
100
AcDbArc
 50
-180.000000000
 51
-90.000000000
  0
CIRCLE
  5
AC0
330
A02
100
AcDbEntity
  8
Body_Unfold006_Sketch_Bend_Labels
100
AcDbCircle
 10
123.280768890
 20
99.535560239
 30
0.000000000
 40
0.400000000
  0
LINE
  5
AC1
330
A02
100
AcDbEntity
  8
Body_Unfold006_Sketch_Bend_Labels
100
AcDbLine
 10
103.850520675
 20
142.017787144
 30
0.000000000
 11
103.850520675
 21
143.217787144
 31
0.000000000
  0
LINE
  5
AC2
330
A02
100
AcDbEntity
  8
Body_Unfold006_Sketch_Bend_Labels
100
AcDbLine
 10
102.850520675
 20
143.617787144
 30
0.000000000
 11
102.850520675
 21
144.217787144
 31
0.000000000
  0
LINE
  5
AC3
330
A02
100
AcDbEntity
  8
Body_Unfold006_Sketch_Bend_Labels
100
AcDbLine
 10
102.850520675
 20
144.217787144
 30
0.000000000
 11
104.850520675
 21
144.217787144
 31
0.000000000
  0
LINE
  5
AC4
330
A02
100
AcDbEntity
  8
Body_Unfold006_Sketch_Bend_Labels
100
AcDbLine
 10
104.850520675
 20
143.617787144
 30
0.000000000
 11
104.850520675
 21
144.817787144
 31
0.000000000
  0
LINE
  5
AC5
330
A02
100
AcDbEntity
  8
Body_Unfold006_Sketch_Bend_Labels
100
AcDbLine
 10
102.850520675
 20
146.417787144
 30
0.000000000
 11
102.850520675
 21
145.217787144
 31
0.000000000
  0
LINE
  5
AC6
330
A02
100
AcDbEntity
  8
Body_Unfold006_Sketch_Bend_Labels
100
AcDbLine
 10
102.850520675
 20
145.217787144
 30
0.000000000
 11
103.650520675
 21
145.217787144
 31
0.000000000
  0
LINE
  5
AC7
330
A02
100
AcDbEntity
  8
Body_Unfold006_Sketch_Bend_Labels
100
AcDbLine
 10
103.650520675
 20
145.217787144
 30
0.000000000
 11
103.650520675
 21
146.017787144
 31
0.000000000
  0
ARC
  5
AC8
330
A02
100
AcDbEntity
  8
Body_Unfold006_Sketch_Bend_Labels
100
AcDbCircle
 10
104.050520675
 20
146.017787144
 30
0.000000000
 40
0.400000000
100
AcDbArc
 50
90.000000000
 51
-180.000000000
  0
LINE
  5
AC9
330
A02
100
AcDbEntity
  8
Body_Unfold006_Sketch_Bend_Labels
100
AcDbLine
 10
104.050520675
 20
146.417787144
 30
0.000000000
 11
104.450520675
 21
146.417787144
 31
0.000000000
  0
ARC
  5
ACA
330
A02
100
AcDbEntity
  8
Body_Unfold006_Sketch_Bend_Labels
100
AcDbCircle
 10
104.450520675
 20
146.017787144
 30
0.000000000
 40
0.400000000
100
AcDbArc
 50
0.000000000
 51
90.000000000
  0
LINE
  5
ACB
330
A02
100
AcDbEntity
  8
Body_Unfold006_Sketch_Bend_Labels
100
AcDbLine
 10
104.850520675
 20
146.017787144
 30
0.000000000
 11
104.850520675
 21
145.217787144
 31
0.000000000
  0
LINE
  5
ACC
330
A02
100
AcDbEntity
  8
Body_Unfold006_Sketch_Bend_Labels
100
AcDbLine
 10
102.850520675
 20
148.017787144
 30
0.000000000
 11
102.850520675
 21
146.817787144
 31
0.000000000
  0
LINE
  5
ACD
330
A02
100
AcDbEntity
  8
Body_Unfold006_Sketch_Bend_Labels
100
AcDbLine
 10
102.850520675
 20
146.817787144
 30
0.000000000
 11
103.650520675
 21
146.817787144
 31
0.000000000
  0
LINE
  5
ACE
330
A02
100
AcDbEntity
  8
Body_Unfold006_Sketch_Bend_Labels
100
AcDbLine
 10
103.650520675
 20
146.817787144
 30
0.000000000
 11
103.650520675
 21
147.617787144
 31
0.000000000
  0
ARC
  5
ACF
330
A02
100
AcDbEntity
  8
Body_Unfold006_Sketch_Bend_Labels
100
AcDbCircle
 10
104.050520675
 20
147.617787144
 30
0.000000000
 40
0.400000000
100
AcDbArc
 50
90.000000000
 51
180.000000000
  0
LINE
  5
AD0
330
A02
100
AcDbEntity
  8
Body_Unfold006_Sketch_Bend_Labels
100
AcDbLine
 10
104.050520675
 20
148.017787144
 30
0.000000000
 11
104.450520675
 21
148.017787144
 31
0.000000000
  0
ARC
  5
AD1
330
A02
100
AcDbEntity
  8
Body_Unfold006_Sketch_Bend_Labels
100
AcDbCircle
 10
104.450520675
 20
147.617787144
 30
0.000000000
 40
0.400000000
100
AcDbArc
 50
0.000000000
 51
90.000000000
  0
LINE
  5
AD2
330
A02
100
AcDbEntity
  8
Body_Unfold006_Sketch_Bend_Labels
100
AcDbLine
 10
104.850520675
 20
147.617787144
 30
0.000000000
 11
104.850520675
 21
146.817787144
 31
0.000000000
  0
CIRCLE
  5
AD3
330
A02
100
AcDbEntity
  8
Body_Unfold006_Sketch_Bend_Labels
100
AcDbCircle
 10
103.250520675
 20
148.817787144
 30
0.000000000
 40
0.400000000
  0
LINE
  5
AD4
330
A02
100
AcDbEntity
  8
Body_Unfold006_Sketch_Bend_Labels
100
AcDbLine
 10
27.543469564
 20
246.715574288
 30
0.000000000
 11
27.543469564
 21
246.115574288
 31
0.000000000
  0
LINE
  5
AD5
330
A02
100
AcDbEntity
  8
Body_Unfold006_Sketch_Bend_Labels
100
AcDbLine
 10
27.543469564
 20
246.115574288
 30
0.000000000
 11
25.543469564
 21
246.115574288
 31
0.000000000
  0
LINE
  5
AD6
330
A02
100
AcDbEntity
  8
Body_Unfold006_Sketch_Bend_Labels
100
AcDbLine
 10
25.543469564
 20
246.715574288
 30
0.000000000
 11
25.543469564
 21
245.515574288
 31
0.000000000
  0
LINE
  5
AD7
330
A02
100
AcDbEntity
  8
Body_Unfold006_Sketch_Bend_Labels
100
AcDbLine
 10
27.543469564
 20
243.915574288
 30
0.000000000
 11
27.543469564
 21
245.115574288
 31
0.000000000
  0
LINE
  5
AD8
330
A02
100
AcDbEntity
  8
Body_Unfold006_Sketch_Bend_Labels
100
AcDbLine
 10
27.543469564
 20
245.115574288
 30
0.000000000
 11
26.743469564
 21
245.115574288
 31
0.000000000
  0
LINE
  5
AD9
330
A02
100
AcDbEntity
  8
Body_Unfold006_Sketch_Bend_Labels
100
AcDbLine
 10
26.743469564
 20
245.115574288
 30
0.000000000
 11
26.743469564
 21
244.315574288
 31
0.000000000
  0
ARC
  5
ADA
330
A02
100
AcDbEntity
  8
Body_Unfold006_Sketch_Bend_Labels
100
AcDbCircle
 10
26.343469564
 20
244.315574288
 30
0.000000000
 40
0.400000000
100
AcDbArc
 50
-90.000000000
 51
0.000000000
  0
LINE
  5
ADB
330
A02
100
AcDbEntity
  8
Body_Unfold006_Sketch_Bend_Labels
100
AcDbLine
 10
26.343469564
 20
243.915574288
 30
0.000000000
 11
25.943469564
 21
243.915574288
 31
0.000000000
  0
ARC
  5
ADC
330
A02
100
AcDbEntity
  8
Body_Unfold006_Sketch_Bend_Labels
100
AcDbCircle
 10
25.943469564
 20
244.315574288
 30
0.000000000
 40
0.400000000
100
AcDbArc
 50
180.000000000
 51
-90.000000000
  0
LINE
  5
ADD
330
A02
100
AcDbEntity
  8
Body_Unfold006_Sketch_Bend_Labels
100
AcDbLine
 10
25.543469564
 20
244.315574288
 30
0.000000000
 11
25.543469564
 21
245.115574288
 31
0.000000000
  0
LINE
  5
ADE
330
A02
100
AcDbEntity
  8
Body_Unfold006_Sketch_Bend_Labels
100
AcDbLine
 10
27.543469564
 20
242.315574288
 30
0.000000000
 11
27.543469564
 21
243.515574288
 31
0.000000000
  0
LINE
  5
ADF
330
A02
100
AcDbEntity
  8
Body_Unfold006_Sketch_Bend_Labels
100
AcDbLine
 10
27.543469564
 20
243.515574288
 30
0.000000000
 11
26.743469564
 21
243.515574288
 31
0.000000000
  0
LINE
  5
AE0
330
A02
100
AcDbEntity
  8
Body_Unfold006_Sketch_Bend_Labels
100
AcDbLine
 10
26.743469564
 20
243.515574288
 30
0.000000000
 11
26.743469564
 21
242.715574288
 31
0.000000000
  0
ARC
  5
AE1
330
A02
100
AcDbEntity
  8
Body_Unfold006_Sketch_Bend_Labels
100
AcDbCircle
 10
26.343469564
 20
242.715574288
 30
0.000000000
 40
0.400000000
100
AcDbArc
 50
-90.000000000
 51
-0.000000000
  0
LINE
  5
AE2
330
A02
100
AcDbEntity
  8
Body_Unfold006_Sketch_Bend_Labels
100
AcDbLine
 10
26.343469564
 20
242.315574288
 30
0.000000000
 11
25.943469564
 21
242.315574288
 31
0.000000000
  0
ARC
  5
AE3
330
A02
100
AcDbEntity
  8
Body_Unfold006_Sketch_Bend_Labels
100
AcDbCircle
 10
25.943469564
 20
242.715574288
 30
0.000000000
 40
0.400000000
100
AcDbArc
 50
-180.000000000
 51
-90.000000000
  0
LINE
  5
AE4
330
A02
100
AcDbEntity
  8
Body_Unfold006_Sketch_Bend_Labels
100
AcDbLine
 10
25.543469564
 20
242.715574288
 30
0.000000000
 11
25.543469564
 21
243.515574288
 31
0.000000000
  0
CIRCLE
  5
AE5
330
A02
100
AcDbEntity
  8
Body_Unfold006_Sketch_Bend_Labels
100
AcDbCircle
 10
27.143469564
 20
241.515574288
 30
0.000000000
 40
0.400000000
  0
LINE
  5
AE6
330
A02
100
AcDbEntity
  8
Body_Unfold006_Sketch_Bend_Labels
100
AcDbLine
 10
103.850520675
 20
43.260000000
 30
0.000000000
 11
103.850520675
 21
44.460000000
 31
0.000000000
  0
LINE
  5
AE7
330
A02
100
AcDbEntity
  8
Body_Unfold006_Sketch_Bend_Labels
100
AcDbLine
 10
102.850520675
 20
44.860000000
 30
0.000000000
 11
102.850520675
 21
45.460000000
 31
0.000000000
  0
LINE
  5
AE8
330
A02
100
AcDbEntity
  8
Body_Unfold006_Sketch_Bend_Labels
100
AcDbLine
 10
102.850520675
 20
45.460000000
 30
0.000000000
 11
104.850520675
 21
45.460000000
 31
0.000000000
  0
LINE
  5
AE9
330
A02
100
AcDbEntity
  8
Body_Unfold006_Sketch_Bend_Labels
100
AcDbLine
 10
104.850520675
 20
44.860000000
 30
0.000000000
 11
104.850520675
 21
46.060000000
 31
0.000000000
  0
LINE
  5
AEA
330
A02
100
AcDbEntity
  8
Body_Unfold006_Sketch_Bend_Labels
100
AcDbLine
 10
102.850520675
 20
47.660000000
 30
0.000000000
 11
102.850520675
 21
46.460000000
 31
0.000000000
  0
LINE
  5
AEB
330
A02
100
AcDbEntity
  8
Body_Unfold006_Sketch_Bend_Labels
100
AcDbLine
 10
102.850520675
 20
46.460000000
 30
0.000000000
 11
103.650520675
 21
46.460000000
 31
0.000000000
  0
LINE
  5
AEC
330
A02
100
AcDbEntity
  8
Body_Unfold006_Sketch_Bend_Labels
100
AcDbLine
 10
103.650520675
 20
46.460000000
 30
0.000000000
 11
103.650520675
 21
47.260000000
 31
0.000000000
  0
ARC
  5
AED
330
A02
100
AcDbEntity
  8
Body_Unfold006_Sketch_Bend_Labels
100
AcDbCircle
 10
104.050520675
 20
47.260000000
 30
0.000000000
 40
0.400000000
100
AcDbArc
 50
90.000000000
 51
180.000000000
  0
LINE
  5
AEE
330
A02
100
AcDbEntity
  8
Body_Unfold006_Sketch_Bend_Labels
100
AcDbLine
 10
104.050520675
 20
47.660000000
 30
0.000000000
 11
104.450520675
 21
47.660000000
 31
0.000000000
  0
ARC
  5
AEF
330
A02
100
AcDbEntity
  8
Body_Unfold006_Sketch_Bend_Labels
100
AcDbCircle
 10
104.450520675
 20
47.260000000
 30
0.000000000
 40
0.400000000
100
AcDbArc
 50
0.000000000
 51
90.000000000
  0
LINE
  5
AF0
330
A02
100
AcDbEntity
  8
Body_Unfold006_Sketch_Bend_Labels
100
AcDbLine
 10
104.850520675
 20
47.260000000
 30
0.000000000
 11
104.850520675
 21
46.460000000
 31
0.000000000
  0
LINE
  5
AF1
330
A02
100
AcDbEntity
  8
Body_Unfold006_Sketch_Bend_Labels
100
AcDbLine
 10
102.850520675
 20
49.260000000
 30
0.000000000
 11
102.850520675
 21
48.060000000
 31
0.000000000
  0
LINE
  5
AF2
330
A02
100
AcDbEntity
  8
Body_Unfold006_Sketch_Bend_Labels
100
AcDbLine
 10
102.850520675
 20
48.060000000
 30
0.000000000
 11
103.650520675
 21
48.060000000
 31
0.000000000
  0
LINE
  5
AF3
330
A02
100
AcDbEntity
  8
Body_Unfold006_Sketch_Bend_Labels
100
AcDbLine
 10
103.650520675
 20
48.060000000
 30
0.000000000
 11
103.650520675
 21
48.860000000
 31
0.000000000
  0
ARC
  5
AF4
330
A02
100
AcDbEntity
  8
Body_Unfold006_Sketch_Bend_Labels
100
AcDbCircle
 10
104.050520675
 20
48.860000000
 30
0.000000000
 40
0.400000000
100
AcDbArc
 50
90.000000000
 51
180.000000000
  0
LINE
  5
AF5
330
A02
100
AcDbEntity
  8
Body_Unfold006_Sketch_Bend_Labels
100
AcDbLine
 10
104.050520675
 20
49.260000000
 30
0.000000000
 11
104.450520675
 21
49.260000000
 31
0.000000000
  0
ARC
  5
AF6
330
A02
100
AcDbEntity
  8
Body_Unfold006_Sketch_Bend_Labels
100
AcDbCircle
 10
104.450520675
 20
48.860000000
 30
0.000000000
 40
0.400000000
100
AcDbArc
 50
0.000000000
 51
90.000000000
  0
LINE
  5
AF7
330
A02
100
AcDbEntity
  8
Body_Unfold006_Sketch_Bend_Labels
100
AcDbLine
 10
104.850520675
 20
48.860000000
 30
0.000000000
 11
104.850520675
 21
48.060000000
 31
0.000000000
  0
CIRCLE
  5
AF8
330
A02
100
AcDbEntity
  8
Body_Unfold006_Sketch_Bend_Labels
100
AcDbCircle
 10
103.250520675
 20
50.060000000
 30
0.000000000
 40
0.400000000
  0
LINE
  5
AF9
330
A02
100
AcDbEntity
  8
Body_Unfold006_Sketch_Bend_Labels
100
AcDbLine
 10
22.210136231
 20
142.817787144
 30
0.000000000
 11
22.210136231
 21
143.417787144
 31
0.000000000
  0
LINE
  5
AFA
330
A02
100
AcDbEntity
  8
Body_Unfold006_Sketch_Bend_Labels
100
AcDbLine
 10
22.210136231
 20
143.417787144
 30
0.000000000
 11
24.210136231
 21
143.417787144
 31
0.000000000
  0
LINE
  5
AFB
330
A02
100
AcDbEntity
  8
Body_Unfold006_Sketch_Bend_Labels
100
AcDbLine
 10
24.210136231
 20
142.817787144
 30
0.000000000
 11
24.210136231
 21
144.017787144
 31
0.000000000
  0
LINE
  5
AFC
330
A02
100
AcDbEntity
  8
Body_Unfold006_Sketch_Bend_Labels
100
AcDbLine
 10
22.210136231
 20
145.617787144
 30
0.000000000
 11
22.210136231
 21
144.417787144
 31
0.000000000
  0
LINE
  5
AFD
330
A02
100
AcDbEntity
  8
Body_Unfold006_Sketch_Bend_Labels
100
AcDbLine
 10
22.210136231
 20
144.417787144
 30
0.000000000
 11
23.010136231
 21
144.417787144
 31
0.000000000
  0
LINE
  5
AFE
330
A02
100
AcDbEntity
  8
Body_Unfold006_Sketch_Bend_Labels
100
AcDbLine
 10
23.010136231
 20
144.417787144
 30
0.000000000
 11
23.010136231
 21
145.217787144
 31
0.000000000
  0
ARC
  5
AFF
330
A02
100
AcDbEntity
  8
Body_Unfold006_Sketch_Bend_Labels
100
AcDbCircle
 10
23.410136231
 20
145.217787144
 30
0.000000000
 40
0.400000000
100
AcDbArc
 50
90.000000000
 51
-180.000000000
  0
LINE
  5
B00
330
A02
100
AcDbEntity
  8
Body_Unfold006_Sketch_Bend_Labels
100
AcDbLine
 10
23.410136231
 20
145.617787144
 30
0.000000000
 11
23.810136231
 21
145.617787144
 31
0.000000000
  0
ARC
  5
B01
330
A02
100
AcDbEntity
  8
Body_Unfold006_Sketch_Bend_Labels
100
AcDbCircle
 10
23.810136231
 20
145.217787144
 30
0.000000000
 40
0.400000000
100
AcDbArc
 50
-0.000000000
 51
90.000000000
  0
LINE
  5
B02
330
A02
100
AcDbEntity
  8
Body_Unfold006_Sketch_Bend_Labels
100
AcDbLine
 10
24.210136231
 20
145.217787144
 30
0.000000000
 11
24.210136231
 21
144.417787144
 31
0.000000000
  0
LINE
  5
B03
330
A02
100
AcDbEntity
  8
Body_Unfold006_Sketch_Bend_Labels
100
AcDbLine
 10
22.210136231
 20
147.217787144
 30
0.000000000
 11
22.210136231
 21
146.017787144
 31
0.000000000
  0
LINE
  5
B04
330
A02
100
AcDbEntity
  8
Body_Unfold006_Sketch_Bend_Labels
100
AcDbLine
 10
22.210136231
 20
146.017787144
 30
0.000000000
 11
23.010136231
 21
146.017787144
 31
0.000000000
  0
LINE
  5
B05
330
A02
100
AcDbEntity
  8
Body_Unfold006_Sketch_Bend_Labels
100
AcDbLine
 10
23.010136231
 20
146.017787144
 30
0.000000000
 11
23.010136231
 21
146.817787144
 31
0.000000000
  0
ARC
  5
B06
330
A02
100
AcDbEntity
  8
Body_Unfold006_Sketch_Bend_Labels
100
AcDbCircle
 10
23.410136231
 20
146.817787144
 30
0.000000000
 40
0.400000000
100
AcDbArc
 50
90.000000000
 51
180.000000000
  0
LINE
  5
B07
330
A02
100
AcDbEntity
  8
Body_Unfold006_Sketch_Bend_Labels
100
AcDbLine
 10
23.410136231
 20
147.217787144
 30
0.000000000
 11
23.810136231
 21
147.217787144
 31
0.000000000
  0
ARC
  5
B08
330
A02
100
AcDbEntity
  8
Body_Unfold006_Sketch_Bend_Labels
100
AcDbCircle
 10
23.810136231
 20
146.817787144
 30
0.000000000
 40
0.400000000
100
AcDbArc
 50
0.000000000
 51
90.000000000
  0
LINE
  5
B09
330
A02
100
AcDbEntity
  8
Body_Unfold006_Sketch_Bend_Labels
100
AcDbLine
 10
24.210136231
 20
146.817787144
 30
0.000000000
 11
24.210136231
 21
146.017787144
 31
0.000000000
  0
CIRCLE
  5
B0A
330
A02
100
AcDbEntity
  8
Body_Unfold006_Sketch_Bend_Labels
100
AcDbCircle
 10
22.610136231
 20
148.017787144
 30
0.000000000
 40
0.400000000
  0
LINE
  5
B0B
330
A02
100
AcDbEntity
  8
Body_Unfold006_Sketch_Bend_Labels
100
AcDbLine
 10
22.210136231
 20
45.320000000
 30
0.000000000
 11
22.210136231
 21
45.920000000
 31
0.000000000
  0
LINE
  5
B0C
330
A02
100
AcDbEntity
  8
Body_Unfold006_Sketch_Bend_Labels
100
AcDbLine
 10
22.210136231
 20
45.920000000
 30
0.000000000
 11
24.210136231
 21
45.920000000
 31
0.000000000
  0
LINE
  5
B0D
330
A02
100
AcDbEntity
  8
Body_Unfold006_Sketch_Bend_Labels
100
AcDbLine
 10
24.210136231
 20
45.320000000
 30
0.000000000
 11
24.210136231
 21
46.520000000
 31
0.000000000
  0
LINE
  5
B0E
330
A02
100
AcDbEntity
  8
Body_Unfold006_Sketch_Bend_Labels
100
AcDbLine
 10
22.210136231
 20
48.120000000
 30
0.000000000
 11
22.210136231
 21
46.920000000
 31
0.000000000
  0
LINE
  5
B0F
330
A02
100
AcDbEntity
  8
Body_Unfold006_Sketch_Bend_Labels
100
AcDbLine
 10
22.210136231
 20
46.920000000
 30
0.000000000
 11
23.010136231
 21
46.920000000
 31
0.000000000
  0
LINE
  5
B10
330
A02
100
AcDbEntity
  8
Body_Unfold006_Sketch_Bend_Labels
100
AcDbLine
 10
23.010136231
 20
46.920000000
 30
0.000000000
 11
23.010136231
 21
47.720000000
 31
0.000000000
  0
ARC
  5
B11
330
A02
100
AcDbEntity
  8
Body_Unfold006_Sketch_Bend_Labels
100
AcDbCircle
 10
23.410136231
 20
47.720000000
 30
0.000000000
 40
0.400000000
100
AcDbArc
 50
90.000000000
 51
180.000000000
  0
LINE
  5
B12
330
A02
100
AcDbEntity
  8
Body_Unfold006_Sketch_Bend_Labels
100
AcDbLine
 10
23.410136231
 20
48.120000000
 30
0.000000000
 11
23.810136231
 21
48.120000000
 31
0.000000000
  0
ARC
  5
B13
330
A02
100
AcDbEntity
  8
Body_Unfold006_Sketch_Bend_Labels
100
AcDbCircle
 10
23.810136231
 20
47.720000000
 30
0.000000000
 40
0.400000000
100
AcDbArc
 50
0.000000000
 51
90.000000000
  0
LINE
  5
B14
330
A02
100
AcDbEntity
  8
Body_Unfold006_Sketch_Bend_Labels
100
AcDbLine
 10
24.210136231
 20
47.720000000
 30
0.000000000
 11
24.210136231
 21
46.920000000
 31
0.000000000
  0
LINE
  5
B15
330
A02
100
AcDbEntity
  8
Body_Unfold006_Sketch_Bend_Labels
100
AcDbLine
 10
22.210136231
 20
49.720000000
 30
0.000000000
 11
22.210136231
 21
48.520000000
 31
0.000000000
  0
LINE
  5
B16
330
A02
100
AcDbEntity
  8
Body_Unfold006_Sketch_Bend_Labels
100
AcDbLine
 10
22.210136231
 20
48.520000000
 30
0.000000000
 11
23.010136231
 21
48.520000000
 31
0.000000000
  0
LINE
  5
B17
330
A02
100
AcDbEntity
  8
Body_Unfold006_Sketch_Bend_Labels
100
AcDbLine
 10
23.010136231
 20
48.520000000
 30
0.000000000
 11
23.010136231
 21
49.320000000
 31
0.000000000
  0
ARC
  5
B18
330
A02
100
AcDbEntity
  8
Body_Unfold006_Sketch_Bend_Labels
100
AcDbCircle
 10
23.410136231
 20
49.320000000
 30
0.000000000
 40
0.400000000
100
AcDbArc
 50
90.000000000
 51
-180.000000000
  0
LINE
  5
B19
330
A02
100
AcDbEntity
  8
Body_Unfold006_Sketch_Bend_Labels
100
AcDbLine
 10
23.410136231
 20
49.720000000
 30
0.000000000
 11
23.810136231
 21
49.720000000
 31
0.000000000
  0
ARC
  5
B1A
330
A02
100
AcDbEntity
  8
Body_Unfold006_Sketch_Bend_Labels
100
AcDbCircle
 10
23.810136231
 20
49.320000000
 30
0.000000000
 40
0.400000000
100
AcDbArc
 50
0.000000000
 51
90.000000000
  0
LINE
  5
B1B
330
A02
100
AcDbEntity
  8
Body_Unfold006_Sketch_Bend_Labels
100
AcDbLine
 10
24.210136231
 20
49.320000000
 30
0.000000000
 11
24.210136231
 21
48.520000000
 31
0.000000000
  0
CIRCLE
  5
B1C
330
A02
100
AcDbEntity
  8
Body_Unfold006_Sketch_Bend_Labels
100
AcDbCircle
 10
22.610136231
 20
50.520000000
 30
0.000000000
 40
0.400000000
  0
ENDSEC
  0
SECTION
  2
OBJECTS
  0
DICTIONARY
  5
F000
330
0
100
AcDbDictionary
  3
ACAD_GROUP
350
F001
  0
DICTIONARY
  5
F001
330
F000
100
AcDbDictionary
  0
ENDSEC
  0
EOF